<svg width="12" height="20" viewBox="0 0 12 20" fill="none" xmlns="http://www.w3.org/2000/svg">
<path fill-rule="evenodd" clip-rule="evenodd" d="M0.968997 0.46912C1.03867 0.399275 1.12143 0.343861 1.21255 0.306051C1.30366 0.268242 1.40135 0.248779 1.5 0.248779C1.59865 0.248779 1.69633 0.268242 1.78745 0.306051C1.87857 0.343861 1.96133 0.399275 2.031 0.46912L11.031 9.46912C11.1008 9.53879 11.1563 9.62155 11.1941 9.71267C11.2319 9.80379 11.2513 9.90147 11.2513 10.0001C11.2513 10.0988 11.2319 10.1965 11.1941 10.2876C11.1563 10.3787 11.1008 10.4615 11.031 10.5311L2.031 19.5311C1.89017 19.6719 1.69916 19.7511 1.5 19.7511C1.30083 19.7511 1.10983 19.6719 0.968997 19.5311C0.828168 19.3903 0.74905 19.1993 0.74905 19.0001C0.74905 18.801 0.828168 18.6099 0.968997 18.4691L9.4395 10.0001L0.968997 1.53112C0.899153 1.46145 0.843738 1.37869 0.805928 1.28757C0.768119 1.19645 0.748657 1.09877 0.748657 1.00012C0.748657 0.901469 0.768119 0.803787 0.805928 0.71267C0.843738 0.621552 0.899153 0.538789 0.968997 0.46912Z" fill="#4B4B4B"/>
</svg>
