<svg width="12" height="20" viewBox="0 0 12 20" fill="none" xmlns="http://www.w3.org/2000/svg">
<path fill-rule="evenodd" clip-rule="evenodd" d="M11.031 0.46912C11.1008 0.538789 11.1563 0.621552 11.1941 0.71267C11.2319 0.803787 11.2513 0.901469 11.2513 1.00012C11.2513 1.09877 11.2319 1.19645 11.1941 1.28757C11.1563 1.37869 11.1008 1.46145 11.031 1.53112L2.5605 10.0001L11.031 18.4691C11.1718 18.6099 11.2509 18.801 11.2509 19.0001C11.2509 19.1993 11.1718 19.3903 11.031 19.5311C10.8902 19.6719 10.6992 19.7511 10.5 19.7511C10.3008 19.7511 10.1098 19.6719 9.969 19.5311L0.968997 10.5311C0.899153 10.4615 0.843738 10.3787 0.805928 10.2876C0.768119 10.1965 0.748657 10.0988 0.748657 10.0001C0.748657 9.90147 0.768119 9.80379 0.805928 9.71267C0.843738 9.62155 0.899153 9.53879 0.968997 9.46912L9.969 0.46912C10.0387 0.399275 10.1214 0.343861 10.2125 0.306051C10.3037 0.268242 10.4013 0.248779 10.5 0.248779C10.5986 0.248779 10.6963 0.268242 10.7874 0.306051C10.8786 0.343861 10.9613 0.399275 11.031 0.46912Z" fill="#4B4B4B"/>
</svg>
